<svg xmlns="http://www.w3.org/2000/svg" width="1200" height="470" viewBox="0 0 1200 470" fill="none" role="img" aria-labelledby="t d">
<title id="t">Números do GitHub</title><desc id="d">143 contribuições, 114 commits no último ano, 17 repositórios, maior sequência de 3 dias. Linguagens: Java, CSS, JavaScript, HTML, Python.</desc>
<defs><path id="gdisplay134" d="M468 17L468 17Q338 17 242-32Q145-81 92-169Q39-257 39-375L39-375Q39-493 92-581Q145-669 242-718Q338-767 468-767L468-767Q597-767 694-718Q790-669 844-581Q897-493 897-375L897-375Q897-257 844-169Q790-81 694-32Q597 17 468 17ZM468-171L468-171Q562-171 614-225Q665-278 665-375L665-375Q665-473 614-526Q562-579 468-579L468-579Q375-579 323-526Q270-473 270-375L270-375Q270-278 323-225Q375-171 468-171Z"/><path id="gdisplay135" d="M297-750L467-750L467 0L237 0L237-552L15-513L15-691L297-750Z"/><path id="gdisplay136" d="M262-476L31-476Q38-566 92-632Q145-697 234-732Q323-767 434-767L434-767Q540-767 620-735Q699-703 743-647Q787-590 787-515L787-515Q787-456 755-406Q722-356 654-309Q586-261 477-212L477-212L412-182L807-182L807 0L50 0L50-160L373-337Q446-377 485-404Q524-430 540-453Q556-475 556-501L556-501Q556-528 541-548Q526-568 497-579Q467-590 425-590L425-590Q370-590 336-575Q301-559 284-533Q266-507 262-476L262-476Z"/><path id="gdisplay137" d="M276-504L44-504Q49-576 95-636Q141-695 228-731Q315-767 441-767L441-767Q548-767 627-741Q706-714 750-667Q793-619 793-555L793-555Q793-505 763-463Q732-421 666-397L666-397Q651-391 635-387L635-387Q649-385 662-382L662-382Q733-364 772-324Q810-283 810-219L810-219Q810-151 765-98Q720-44 634-14Q548 17 425 17L425 17Q305 17 216-16Q127-48 78-109Q28-169 25-250L25-250L256-250Q263-207 303-184Q343-160 425-160L425-160Q496-160 535-180Q573-200 573-237L573-237Q573-259 561-274Q549-288 518-295Q486-302 430-302L430-302L303-302L303-455L430-455Q504-455 532-473Q560-491 560-521L560-521Q560-555 527-573Q493-590 428-590L428-590Q357-590 320-568Q283-545 276-504L276-504Z"/><path id="gdisplay138" d="M438-750L732-750L732-303L845-303L845-134L732-134L732 0L502 0L502-134L25-134L25-297L438-750ZM256-303L502-303L502-574L256-303Z"/><path id="gdisplay139" d="M55-298L123-750L724-750L724-581L276-581L253-438Q289-465 339-482L339-482Q394-500 469-500L469-500Q565-500 635-469Q705-438 744-383Q782-328 782-255L782-255Q782-175 738-114Q694-53 611-18Q527 17 410 17L410 17Q297 17 213-16Q128-49 81-106Q33-162 28-231L28-231L258-231Q266-200 306-180Q345-160 410-160L410-160Q454-160 486-172Q517-183 534-205Q551-226 551-256L551-256Q551-284 535-306Q519-328 488-340Q457-352 413-352L413-352Q376-352 346-345Q316-337 295-325Q273-312 257-298L257-298L55-298Z"/><path id="gdisplay140" d="M454-767L454-767Q554-767 632-737Q709-706 757-655Q804-603 814-538L814-538L601-538Q588-565 554-583Q520-601 460-601L460-601Q392-601 347-576Q301-551 279-503Q256-455 256-385L256-385Q256-384 256-383L256-383Q258-386 260-388L260-388Q308-435 375-463Q441-490 526-490L526-490Q621-490 689-459Q756-428 793-373Q829-318 829-246L829-246Q829-170 786-111Q743-51 661-17Q579 17 459 17L459 17Q318 17 225-33Q132-83 87-172Q41-260 41-374Q41-488 87-577Q133-666 225-717Q317-767 454-767ZM282-251L282-251Q306-201 351-176L351-176Q397-150 463-150L463-150Q506-150 536-162Q566-174 581-194Q596-214 596-238L596-238Q596-265 582-285Q567-304 538-314Q509-324 467-324L467-324Q410-324 357-301L357-301Q318-283 282-251Z"/><path id="gdisplay141" d="M386 0L117 0L486-568L15-568L15-750L742-750L742-565L386 0Z"/><path id="gdisplay142" d="M453-767L453-767Q644-767 744-710Q844-652 844-549L844-549Q844-459 758-414L758-414Q729-399 691-389L691-389Q738-380 774-361L774-361Q865-313 865-209L865-209Q865-99 760-41Q655 17 453 17Q251 17 146-41Q40-99 40-209L40-209Q40-313 132-361L132-361Q167-380 214-389L214-389Q177-399 147-414L147-414Q61-459 61-549L61-549Q61-652 162-710Q262-767 453-767ZM453-158L453-158Q540-158 585-177Q630-195 630-231L630-231Q630-266 585-284Q540-302 453-302Q366-302 321-284Q276-266 276-231L276-231Q276-195 321-177Q366-158 453-158ZM453-458L453-458Q505-458 541-466Q576-473 595-488Q613-503 613-525L613-525Q613-557 572-575Q531-592 453-592L453-592Q374-592 333-575Q292-557 292-525L292-525Q292-503 311-488Q329-473 365-466Q400-458 453-458Z"/><path id="gdisplay143" d="M413 17L413 17Q313 17 236-14Q158-44 111-96Q64-148 54-212L54-212L266-212Q280-185 314-167Q348-149 407-149L407-149Q477-149 522-174Q566-199 589-248Q611-296 611-365L611-365Q611-366 611-366L611-366Q610-365 608-363L608-363Q560-315 494-288Q427-260 341-260L341-260Q247-260 179-291Q111-322 75-377Q39-432 38-504L38-504Q39-580 82-640Q124-699 207-733Q289-767 409-767L409-767Q550-767 643-717Q735-667 782-579Q828-490 827-376L827-376Q828-262 782-173Q735-84 643-34Q551 17 413 17ZM586-499L586-499Q562-549 517-574L517-574Q470-600 405-600L405-600Q361-600 332-588Q302-576 287-557Q271-537 271-512L271-512Q271-485 286-466Q301-447 330-437Q359-426 401-426L401-426Q458-426 511-450L511-450Q550-467 586-499Z"/><path id="gmonoBold11" d="M304 10L304 10Q234 10 182-17Q129-43 101-92Q72-140 72-206L72-206L72-524Q72-591 101-639Q129-687 182-714Q234-740 304-740L304-740Q375-740 427-714Q478-687 507-639Q536-591 536-524L536-524L410-524Q410-576 383-603Q355-630 304-630L304-630Q253-630 225-603Q197-576 197-525L197-525L197-206Q197-155 225-128Q253-100 304-100L304-100Q355-100 383-128Q410-155 410-206L410-206L536-206Q536-141 507-92Q478-43 427-17Q375 10 304 10Z"/><path id="gmonoBold34" d="M300 10L300 10Q230 10 179-17Q127-43 100-92Q72-140 72-206L72-206L72-524Q72-590 100-639Q127-687 179-714Q230-740 300-740L300-740Q371-740 422-714Q473-687 501-639Q528-590 528-525L528-525L528-206Q528-140 501-92Q473-43 422-17Q371 10 300 10ZM300-100L300-100Q351-100 377-128Q403-155 403-206L403-206L403-524Q403-576 377-603Q351-630 300-630L300-630Q249-630 223-603Q197-576 197-524L197-524L197-206Q197-155 224-128Q250-100 300-100Z"/><path id="gmonoBold32" d="M186 0L72 0L72-730L225-730L428-140Q425-172 422-216Q418-259 416-305Q414-350 414-384L414-384L414-730L528-730L528 0L375 0L174-590Q176-561 179-520Q182-479 184-436Q186-393 186-357L186-357L186 0Z"/><path id="gmonoBold47" d="M363 0L237 0L237-614L46-614L46-730L554-730L554-614L363-614L363 0Z"/><path id="gmonoBold45" d="M201 0L76 0L76-730L307-730Q380-730 434-703Q487-676 517-628Q547-579 547-513L547-513Q547-441 511-386Q474-331 412-308L412-308L557 0L417 0L290-290L201-290L201 0ZM201-620L201-400L307-400Q360-400 390-429Q420-458 420-509L420-509Q420-561 390-591Q360-620 307-620L307-620L201-620Z"/><path id="gmonoBold23" d="M510 0L90 0L90-110L237-110L237-620L90-620L90-730L510-730L510-620L363-620L363-110L510-110L510 0Z"/><path id="gmonoBold10" d="M312 0L77 0L77-730L301-730Q407-730 469-680Q531-629 531-542L531-542Q531-493 509-457Q487-421 450-401L450-401Q425-388 396-383L396-383Q429-379 458-366L458-366Q499-345 524-305Q548-265 548-208L548-208Q548-145 519-98Q490-51 438-26Q385 0 312 0L312 0ZM199-328L199-104L304-104Q359-104 391-134Q422-163 422-214Q422-265 391-297Q359-328 304-328L304-328L199-328ZM199-626L199-429L299-429Q349-429 378-456Q406-482 406-528Q406-574 378-600Q349-626 299-626L299-626L199-626Z"/><path id="gmonoBold48" d="M300 10L300 10Q193 10 133-49Q72-107 72-208L72-208L72-730L198-730L198-209Q198-157 224-128Q250-99 300-99L300-99Q349-99 376-128Q402-157 402-209L402-209L402-730L528-730L528-208Q528-107 468-49Q408 10 300 10Z"/><path id="gmonoBold12" d="M304 216L204 216L204 152L280 152Q304 152 319 141Q333 129 333 116L333 116Q333 96 304 83Q274 69 221 69L221 69L246 5Q211-2 182-17L182-17Q129-43 101-92Q72-140 72-206L72-206L72-524Q72-591 101-639Q129-687 182-714Q234-740 304-740L304-740Q375-740 427-714Q478-687 507-639Q536-590 536-524L536-524L410-524Q410-576 383-603Q355-630 304-630Q253-630 225-603Q197-576 197-525L197-525L197-206Q197-155 225-128Q253-100 304-100Q355-100 383-128Q410-155 410-206L410-206L536-206Q536-141 507-92Q478-43 427-17L427-17Q378 8 312 10L312 10L303 37Q332 40 363 50Q393 60 414 80Q435 99 435 128L435 128Q435 163 399 190Q363 216 304 216L304 216Z"/><path id="gmonoBold40" d="M300 10L300 10Q230 10 179-17Q127-43 100-92Q72-140 72-206L72-206L72-524Q72-590 100-639Q127-687 179-714Q230-740 300-740L300-740Q371-740 422-714Q473-687 501-639Q528-590 528-525L528-525L528-206Q528-140 501-92Q473-43 422-17Q371 10 300 10ZM300-100L300-100Q351-100 377-128Q403-155 403-206L403-206L403-524Q403-576 377-603Q351-630 300-630L300-630Q249-630 223-603Q197-576 197-524L197-524L197-206Q197-155 224-128Q250-100 300-100ZM370-806L370-806Q339-806 320-816Q300-825 287-838Q274-851 263-861Q251-870 235-870L235-870Q222-870 214-862Q205-853 205-837L205-837L205-811L128-811L128-844Q128-893 157-924Q185-954 230-954L230-954Q261-954 281-945Q300-935 313-922Q326-909 338-900Q349-890 365-890L365-890Q379-890 387-898Q395-905 395-921L395-921L395-949L472-949L472-916Q472-867 444-837Q416-806 370-806Z"/><path id="gmonoBold15" d="M526 0L88 0L88-730L526-730L526-621L211-621L211-431L491-431L491-323L211-323L211-109L526-109L526 0Z"/><path id="gmonoBold46" d="M302 10L302 10Q227 10 172-15Q117-40 88-87Q58-133 57-196L57-196L182-196Q182-151 215-126Q247-100 303-100L303-100Q357-100 388-125Q418-150 418-194L418-194Q418-231 397-259Q375-286 335-296L335-296L251-319Q165-341 119-398Q72-455 72-536L72-536Q72-598 100-644Q128-690 180-715Q231-740 301-740L301-740Q407-740 469-686Q531-631 532-539L532-539L407-539Q407-582 379-607Q351-631 300-631L300-631Q251-631 224-608Q197-585 197-543L197-543Q197-505 218-479Q238-452 277-441L277-441L364-417Q451-395 497-339Q543-282 543-199L543-199Q543-137 513-90Q483-42 429-16Q375 10 302 10Z"/><path id="gmono70" d="M268 10L268 10Q186 10 136-45Q85-100 85-194L85-194L85-355Q85-450 135-505Q185-560 268-560L268-560Q336-560 377-523L377-523Q411-492 417-445L417-445L420-445L418-570L418-730L508-730L508 0L418 0L418-105L417-105Q411-57 377-27L377-27Q336 10 268 10ZM298-68L298-68Q354-68 386-103Q418-138 418-200L418-200L418-350Q418-412 386-447Q354-482 298-482L298-482Q241-482 208-448Q175-414 175-350L175-350L175-200Q175-136 208-102Q241-68 298-68Z"/><path id="gmono72" d="M300 10L300 10Q235 10 187-16Q138-42 112-90Q85-137 85-200L85-200L85-350Q85-414 112-461Q138-508 187-534Q235-560 300-560Q365-560 414-534Q462-508 489-461Q515-414 515-350L515-350L515-253L173-253L173-200Q173-135 206-101Q239-66 300-66L300-66Q352-66 384-85Q416-103 423-140L423-140L513-140Q504-71 446-31Q387 10 300 10ZM173-321L427-321L427-350Q427-415 395-450Q362-485 300-485L300-485Q239-485 206-450Q173-415 173-350L173-350L173-321Z"/><path id="gmono106" d="M325 8L283 8Q227 8 186-10Q144-27 120-59Q95-91 90-135L90-135L180-135Q186-106 213-89Q239-72 283-72L283-72L325-72Q378-72 404-94Q430-115 430-151L430-151Q430-186 407-207Q383-227 337-234L337-234L263-246Q182-260 143-297Q103-333 103-403L103-403Q103-477 150-518Q197-558 291-558L291-558L329-558Q408-558 456-521Q504-484 514-421L514-421L424-421Q418-447 394-463Q370-478 329-478L329-478L291-478Q240-478 217-459Q193-440 193-402L193-402Q193-368 213-352Q233-336 276-329L276-329L350-317Q439-303 480-265Q520-227 520-155L520-155Q520-79 472-36Q423 8 325 8L325 8Z"/><path id="gmono59" d="M252 10L252 10Q165 10 115-35Q65-79 65-155L65-155Q65-232 115-276Q165-320 250-320L250-320L420-320L420-375Q420-426 390-454Q359-481 303-481L303-481Q254-481 221-461Q188-440 183-405L183-405L93-405Q102-476 160-518Q218-560 305-560L305-560Q400-560 455-511Q510-462 510-378L510-378L510 0L422 0L422-105L421-105Q416-56 376-25L376-25Q329 10 252 10ZM274-61L274-61Q338-61 379-93Q420-125 420-175L420-175L420-253L252-253Q207-253 181-228Q155-203 155-160L155-160Q155-114 187-88Q218-61 274-61Z"/><path id="gmono78" d="M335 180L161 180L161 98L336 98Q378 98 398 79Q417 60 417 20L417 20L417-50L419-150L417-150Q413-101 378-70L378-70Q338-35 271-35L271-35Q186-35 137-91Q88-146 88-240L88-240L88-356Q88-450 137-505Q186-560 271-560L271-560Q338-560 378-525L378-525Q413-494 417-445L417-445L418-445L418-550L507-550L507 20Q507 94 462 137Q416 180 335 180L335 180ZM298-113L298-113Q354-113 386-148Q418-183 418-245L418-245L418-350Q418-412 386-447Q354-482 298-482L298-482Q241-482 210-448Q178-414 178-350L178-350L178-245Q178-181 210-147Q241-113 298-113Z"/><path id="gmono94" d="M300 8L300 8Q234 8 186-17Q138-42 112-90Q85-137 85-202L85-202L85-348Q85-414 112-461Q138-508 186-533Q234-558 300-558L300-558Q366-558 414-533Q462-508 489-461Q515-414 515-349L515-349L515-202Q515-137 489-90Q462-42 414-17Q366 8 300 8ZM300-72L300-72Q359-72 392-105Q425-138 425-202L425-202L425-348Q425-412 392-445Q359-478 300-478L300-478Q242-478 209-445Q175-412 175-348L175-348L175-202Q175-138 209-105Q242-72 300-72Z"/><path id="gmono125" d="M526 0L92 0L92-92L315-329Q372-390 398-438Q424-485 424-529L424-529Q424-590 391-625Q357-660 299-660L299-660Q235-660 199-624Q162-588 162-525L162-525L72-525Q74-591 103-640Q131-688 182-714Q232-740 299-740L299-740Q365-740 414-715Q462-689 488-642Q514-595 514-530L514-530Q514-468 481-407Q448-346 373-268L373-268L193-82L526-82L526 0Z"/><path id="gmono123" d="M300 10L300 10Q233 10 184-17Q134-43 107-92Q80-140 80-205L80-205L80-525Q80-591 107-639Q134-687 184-714Q233-740 300-740L300-740Q368-740 417-714Q466-687 493-639Q520-591 520-525L520-525L520-205Q520-140 493-92Q466-43 417-17Q367 10 300 10ZM300-67L300-67Q360-67 397-106Q433-144 433-205L433-205L433-525Q433-586 397-625Q360-663 300-663L300-663Q240-663 204-625Q167-586 167-525L167-525L167-205Q167-144 204-106Q240-67 300-67ZM300-306L300-306Q273-306 257-323Q240-340 240-368L240-368Q240-395 257-412Q273-428 300-428L300-428Q327-428 344-412Q360-395 360-368L360-368Q360-340 344-323Q327-306 300-306Z"/><path id="gmono128" d="M298 10L298 10Q209 10 152-36Q95-82 85-160L85-160L175-160Q180-117 212-94Q244-70 299-70L299-70Q362-70 394-104Q425-138 425-200L425-200L425-271Q425-333 394-367Q362-401 300-401L300-401Q261-401 232-381Q203-360 190-326L190-326L100-326L105-730L489-730L489-648L192-648L189-405L192-405Q200-434 227-453L227-453Q264-480 327-480L327-480Q416-481 466-426Q515-370 515-271L515-271L515-200Q515-103 458-47Q401 10 298 10Z"/><path id="gmonoBold31" d="M173 0L56 0L56-730L204-730L275-498Q286-463 293-434Q300-405 302-392L302-392Q304-405 311-434Q318-463 328-498L328-498L396-730L544-730L544 0L427 0L427-227Q427-277 430-336Q433-395 437-454Q441-513 447-566Q452-619 456-659L456-659L358-314L244-314L143-659Q148-621 153-570Q158-518 163-460Q167-401 170-341Q173-281 173-227L173-227L173 0Z"/><path id="gmonoBold149" d="M300-255L300-255Q257-255 232-280Q206-305 206-348L206-348Q206-391 232-417Q257-442 300-442L300-442Q343-442 369-417Q394-391 394-348L394-348Q394-305 369-280Q343-255 300-255Z"/><path id="gmonoBold124" d="M552 0L84 0L84-110L274-110L274-619L83-477L83-609L251-730L399-730L399-110L552-110L552 0Z"/><path id="gmonoBold125" d="M535 0L79 0L79-121L307-350Q355-399 378-439Q401-478 401-520L401-520Q401-571 373-600Q345-628 297-628L297-628Q244-628 214-598Q184-567 184-513L184-513L59-513Q60-583 90-634Q119-684 173-712Q227-740 299-740L299-740Q368-740 419-714Q470-688 498-641Q526-594 526-529L526-529Q526-462 492-399Q457-335 381-262L381-262L229-113L535-113L535 0Z"/><path id="gmono42" d="M182 0L92 0L92-730L327-730Q395-730 445-704Q495-677 523-629Q550-581 550-515L550-515Q550-450 523-402Q495-353 445-327Q395-300 327-300L327-300L182-300L182 0ZM182-649L182-381L327-381Q386-381 422-418Q457-454 457-515L457-515Q457-577 422-613Q386-649 327-649L327-649L182-649Z"/><path id="gmono45" d="M182 0L92 0L92-730L318-730Q383-730 432-704Q481-677 508-630Q535-583 535-520L535-520Q535-446 497-393Q458-340 392-320L392-320L545 0L439 0L299-310L182-310L182 0ZM182-649L182-391L318-391Q374-391 408-427Q442-462 442-520L442-520Q442-579 408-614Q374-649 318-649L318-649L182-649Z"/><path id="gmono149" d="M300-260L300-260Q262-260 240-282Q217-304 217-341L217-341Q217-380 240-403Q262-426 300-426L300-426Q338-426 361-403Q383-380 383-341L383-341Q383-304 361-282Q338-260 300-260Z"/><path id="gmono124" d="M540 0L90 0L90-82L288-82L288-655L90-507L90-607L255-730L378-730L378-82L540-82L540 0Z"/><path id="gmono80" d="M555 0L85 0L85-82L280-82L280-468L110-468L110-550L370-550L370-82L555-82L555 0ZM315-649L315-649Q282-649 263-666Q244-683 244-712L244-712Q244-742 263-760Q282-777 315-777L315-777Q348-777 367-760Q386-742 386-712L386-712Q386-683 367-666Q348-649 315-649Z"/><path id="gmono109" d="M299 10L299 10Q204 10 147-47Q90-103 90-200L90-200L90-550L180-550L180-200Q180-138 212-104Q244-69 299-69L299-69Q355-69 388-104Q420-138 420-200L420-200L420-550L510-550L510-200Q510-103 452-47Q394 10 299 10Z"/><path id="gmonoBold42" d="M202 0L77 0L77-730L320-730Q393-730 448-702Q502-674 532-624Q562-573 562-505L562-505Q562-438 532-387Q501-336 447-308Q393-280 320-280L320-280L202-280L202 0ZM202-617L202-393L320-393Q372-393 404-424Q435-454 435-505L435-505Q435-557 404-587Q372-617 320-617L320-617L202-617Z"/><path id="gmonoBold35" d="M300 10L300 10Q230 10 179-17Q127-43 100-92Q72-140 72-206L72-206L72-524Q72-590 100-639Q127-687 179-714Q230-740 300-740L300-740Q371-740 422-714Q473-687 501-639Q528-590 528-525L528-525L528-206Q528-140 501-92Q473-43 422-17Q371 10 300 10ZM300-100L300-100Q351-100 377-128Q403-155 403-206L403-206L403-524Q403-576 377-603Q351-630 300-630L300-630Q249-630 223-603Q197-576 197-524L197-524L197-206Q197-155 224-128Q250-100 300-100ZM350-810L224-810L330-950L464-950L350-810Z"/><path id="gmono131" d="M300 10L300 10Q233 10 184-14Q134-37 107-81Q80-125 80-184L80-184Q80-249 116-296L116-296Q150-342 225-378L225-378Q162-413 131-451L131-451Q95-496 95-559L95-559Q95-615 120-656Q145-697 191-719Q237-741 300-741Q363-741 409-719Q455-697 480-656Q505-615 505-559L505-559Q505-496 469-452L469-452Q439-414 375-379L375-379Q450-343 484-298L484-298Q520-250 520-184L520-184Q520-95 461-43Q401 10 300 10ZM300-70L300-70Q361-70 397-102Q432-133 432-186L432-186Q432-229 409-264Q386-299 343-320L343-320L300-341L254-319Q213-299 191-265Q168-230 168-188L168-188Q168-134 204-102Q239-70 300-70ZM271-428L299-415L325-427Q369-448 393-482Q417-516 417-557L417-557Q417-605 386-633Q354-661 300-661Q246-661 215-633Q183-604 183-556L183-556Q183-516 207-482Q230-448 271-428L271-428Z"/><path id="gmono108" d="M510 0L360 0Q289 0 250-38Q210-76 210-145L210-145L210-468L55-468L55-550L210-550L210-705L300-705L300-550L520-550L520-468L300-468L300-145Q300-82 360-82L360-82L510-82L510 0Z"/><path id="gmono105" d="M201 0L111 0L111-550L199-550L199-452Q209-490 230-515L230-515Q268-560 344-560L344-560Q431-560 483-506Q534-451 534-358L534-358L534-325L444-325L444-350Q444-415 413-450Q381-484 323-484L323-484Q266-484 234-449Q201-414 201-350L201-350L201 0Z"/><path id="gmono90" d="M550 0L375 0Q327 0 291-19Q255-38 235-73Q215-108 215-155L215-155L215-648L30-648L30-730L305-730L305-155Q305-121 324-102Q343-82 375-82L375-82L550-82L550 0Z"/><path id="gmono77" d="M310 0L220 0L220-413L60-413L60-495L220-495L220-590Q220-655 261-693Q302-730 374-730L374-730L535-730L535-648L374-648Q343-648 327-634Q310-619 310-590L310-590L310-495L535-495L535-413L310-413L310 0Z"/><path id="gmono89" d="M185 0L95 0L95-730L185-730L185-323L291-323L451-550L554-550L369-288L557 0L452 0L292-245L185-245L185 0Z"/><path id="gmonoBold1" d="M163 0L35 0L219-730L380-730L565 0L437 0L397-177L203-177L163 0ZM270-476L226-279L374-279L330-475Q319-524 311-564Q303-603 300-621L300-621Q297-603 290-564Q282-524 270-476L270-476Z"/><path id="gmonoBold44" d="M544 180L409 180L306 10Q303 10 300 10L300 10Q230 10 178-17Q126-44 97-94Q68-143 68-208L68-208L68-522Q68-589 97-638Q126-686 178-713Q230-740 300-740Q370-740 422-713Q474-686 503-637Q532-588 532-522L532-522L532-208Q532-142 504-93Q475-43 423-17L423-17L544 180ZM300-100L300-100Q352-100 380-129Q407-157 407-208L407-208L407-522Q407-574 379-603Q350-631 300-631Q250-631 222-603Q193-574 193-522L193-522L193-208Q193-157 221-129Q249-100 300-100Z"/><path id="gmonoBold17" d="M526 0L88 0L88-730L526-730L526-621L211-621L211-431L491-431L491-323L211-323L211-109L526-109L526 0ZM246-810L125-810L262-950L378-950L515-810L395-810L319-883L246-810Z"/><path id="guiBold33" d="M270 14L270 14Q211 14 160-16Q108-45 77-102Q46-159 46-240L46-240L46-256Q46-337 77-394Q108-451 159-481Q210-510 270-510L270-510Q315-510 346-500Q376-489 395-473Q414-457 424-439L424-439L442-439L442-700L568-700L568 0L444 0L444-60L426-60Q409-32 374-9Q338 14 270 14ZM308-96L308-96Q366-96 405-134Q444-171 444-243L444-243L444-253Q444-325 406-363Q367-400 308-400L308-400Q250-400 211-363Q172-325 172-253L172-253L172-243Q172-171 211-134Q250-96 308-96Z"/><path id="guiBold38" d="M196 0L70 0L70-496L196-496L196 0ZM133-554L133-554Q99-554 76-576Q52-598 52-634L52-634Q52-670 76-692Q99-714 133-714L133-714Q168-714 191-692Q214-670 214-634L214-634Q214-598 191-576Q168-554 133-554Z"/><path id="guiBold30" d="M224 14L224 14Q171 14 129-5Q87-23 63-59Q38-94 38-145L38-145Q38-196 63-231Q87-265 131-283Q174-300 230-300L230-300L366-300L366-328Q366-363 344-386Q322-408 274-408L274-408Q227-408 204-387Q181-365 174-331L174-331L58-370Q70-408 97-440Q123-471 168-491Q212-510 276-510L276-510Q374-510 431-461Q488-412 488-319L488-319L488-134Q488-104 516-104L516-104L556-104L556 0L472 0Q435 0 411-18Q387-36 387-66L387-66L387-67L368-67Q364-55 350-36Q336-16 306-1Q276 14 224 14ZM246-88L246-88Q299-88 333-118Q366-147 366-196L366-196L366-206L239-206Q204-206 184-191Q164-176 164-149L164-149Q164-122 185-105Q206-88 246-88Z"/><path id="guiBold48" d="M276 14L276 14Q179 14 117-28Q55-70 42-148L42-148L158-178Q165-143 182-123Q198-103 223-95Q247-86 276-86L276-86Q320-86 341-102Q362-117 362-140L362-140Q362-163 342-176Q322-188 278-196L278-196L250-201Q198-211 155-229Q112-246 86-277Q60-308 60-357L60-357Q60-431 114-471Q168-510 256-510L256-510Q339-510 394-473Q449-436 466-376L466-376L349-340Q341-378 317-394Q292-410 256-410L256-410Q220-410 201-398Q182-385 182-363L182-363Q182-339 202-328Q222-316 256-310L256-310L284-305Q340-295 386-279Q431-262 458-232Q484-201 484-149L484-149Q484-71 428-29Q371 14 276 14Z"/><path id="gmono126" d="M289 10L289 10Q223 10 174-17Q124-43 97-90Q70-137 70-200L70-200L160-200Q160-139 195-105Q229-70 290-70L290-70Q352-70 386-106Q420-142 420-200L420-200L420-252Q420-314 386-348Q352-382 290-382L290-382L215-382L215-472L396-648L100-648L100-730L487-730L487-640L303-462Q395-459 451-405L451-405Q510-348 510-252L510-252L510-200Q510-137 483-90Q455-43 405-17Q355 10 289 10Z"/><path id="guiBold13" d="M267 14L267 14Q159 14 96-45Q32-104 32-210L32-210L32-276L164-276L164-210Q164-163 190-137Q216-110 263-110L263-110Q307-110 332-136Q356-162 356-210L356-210L356-580L236-580L236-700L568-700L568-580L488-580L488-210Q488-101 429-44Q370 14 267 14Z"/><path id="guiBold51" d="M374 0L174 0L16-496L150-496L265-92L283-92L398-496L532-496L374 0Z"/><path id="gmono129" d="M301 10L301 10Q231 10 179-20Q126-49 97-102Q68-155 68-225L68-225Q68-280 84-333Q99-386 130-435L130-435L313-730L413-730L206-398L210-395Q229-423 262-438Q295-453 336-453L336-453Q396-453 440-425Q484-397 508-346Q532-295 532-225L532-225Q532-155 503-102Q474-49 423-20Q371 10 301 10ZM300-70L300-70Q364-70 403-113Q442-155 442-225L442-225Q442-295 403-338Q364-380 300-380L300-380Q236-380 197-338Q158-295 158-225L158-225Q158-155 197-113Q236-70 300-70Z"/><path id="gmono141" d="M245 160L165 160L245-151L375-151L245 160Z"/><path id="gmono262" d="M88 0L14 0L512-730L586-730L88 0ZM445 5L445 5Q382 5 344-31Q306-67 306-130L306-130L306-195Q306-258 344-294Q382-330 445-330L445-330Q508-330 546-294Q584-258 584-195L584-195L584-130Q584-67 546-31Q508 5 445 5ZM445-64L445-64Q510-64 510-130L510-130L510-195Q510-262 445-262L445-262Q380-262 380-195L380-195L380-130Q380-64 445-64ZM155-400L155-400Q92-400 54-436Q16-472 16-535L16-535L16-600Q16-663 54-699Q92-735 155-735L155-735Q218-735 256-699Q294-663 294-600L294-600L294-535Q294-472 256-436Q218-400 155-400ZM155-468L155-468Q220-468 220-535L220-535L220-600Q220-667 155-667L155-667Q123-667 107-651Q90-634 90-600L90-600L90-535Q90-501 107-485Q123-468 155-468Z"/><path id="guiBold6" d="M332 14L332 14Q202 14 126-59Q50-131 50-266L50-266L50-434Q50-569 126-642Q202-714 332-714L332-714Q461-714 532-644Q602-573 602-450L602-450L602-444L472-444L472-454Q472-516 438-556Q403-596 332-596L332-596Q262-596 222-553Q182-510 182-436L182-436L182-264Q182-191 222-148Q262-104 332-104L332-104Q403-104 438-145Q472-185 472-246L472-246L472-264L602-264L602-250Q602-127 532-57Q461 14 332 14Z"/><path id="guiBold22" d="M309 14L309 14Q228 14 166-15Q104-44 69-98Q34-152 34-228L34-228L34-256L164-256L164-228Q164-165 203-134Q242-102 309-102L309-102Q377-102 411-129Q444-156 444-198L444-198Q444-227 428-245Q411-263 380-275Q348-286 303-296L303-296L280-301Q208-317 157-342Q105-366 78-406Q50-446 50-510L50-510Q50-574 81-620Q111-665 167-690Q222-714 297-714L297-714Q372-714 431-689Q489-663 523-613Q556-562 556-486L556-486L556-456L426-456L426-486Q426-526 411-551Q395-575 366-587Q337-598 297-598L297-598Q237-598 209-576Q180-553 180-514L180-514Q180-488 194-470Q207-452 234-440Q261-428 303-419L303-419L326-414Q401-398 457-373Q512-348 543-307Q574-266 574-202L574-202Q574-138 542-90Q509-41 450-14Q390 14 309 14Z"/><path id="guiBold32" d="M303 14L303 14Q231 14 173-16Q114-46 80-103Q46-160 46-241L46-241L46-255Q46-336 80-393Q114-450 173-480Q231-510 303-510L303-510Q374-510 425-485Q476-460 508-417Q539-373 549-318L549-318L427-292Q423-322 409-346Q395-370 370-384Q344-398 306-398L306-398Q268-398 238-382Q207-365 190-333Q172-300 172-253L172-253L172-243Q172-196 190-164Q207-131 238-115Q268-98 306-98L306-98Q363-98 393-128Q422-157 430-205L430-205L552-176Q539-123 508-80Q476-36 425-11Q374 14 303 14Z"/><path id="guiBold47" d="M196 0L70 0L70-496L194-496L194-440L212-440Q223-470 249-484Q274-498 308-498L308-498L368-498L368-386L306-386Q258-386 227-361Q196-335 196-282L196-282L196 0Z"/><path id="guiBold45" d="M196 200L70 200L70-496L194-496L194-436L212-436Q229-465 265-488Q301-510 368-510L368-510Q428-510 479-481Q530-451 561-394Q592-337 592-256L592-256L592-240Q592-159 561-102Q530-45 479-16Q428 14 368 14L368 14Q323 14 293 4Q262-7 244-24Q225-40 214-57L214-57L196-57L196 200ZM330-96L330-96Q389-96 428-134Q466-171 466-243L466-243L466-253Q466-325 427-363Q388-400 330-400L330-400Q272-400 233-363Q194-325 194-253L194-253L194-243Q194-171 233-134Q272-96 330-96Z"/><path id="guiBold49" d="M400 0L260 0Q211 0 181-31Q150-61 150-112L150-112L150-392L26-392L26-496L150-496L150-650L276-650L276-496L412-496L412-392L276-392L276-134Q276-104 304-104L304-104L400-104L400 0Z"/><path id="guiBold11" d="M198 0L66 0L66-700L198-700L198-411L458-411L458-700L590-700L590 0L458 0L458-291L198-291L198 0Z"/><path id="guiBold23" d="M360 0L228 0L228-580L24-580L24-700L564-700L564-580L360-580L360 0Z"/><path id="guiBold16" d="M194 0L66 0L66-700L311-700L432-90L450-90L571-700L816-700L816 0L688 0L688-603L670-603L550 0L332 0L212-603L194-603L194 0Z"/><path id="guiBold15" d="M518 0L66 0L66-700L198-700L198-120L518-120L518 0Z"/><path id="gmono132" d="M287 0L187 0L394-332L390-335Q371-307 338-292Q305-277 264-277L264-277Q205-277 161-305Q116-333 92-385Q68-436 68-505L68-505Q68-576 97-629Q126-681 178-711Q230-740 299-740L299-740Q369-740 422-711Q474-681 503-629Q532-576 532-505L532-505Q532-450 517-397Q501-344 470-295L470-295L287 0ZM300-350L300-350Q364-350 403-393Q442-435 442-505L442-505Q442-575 403-618Q364-660 300-660L300-660Q236-660 197-618Q158-575 158-505L158-505Q158-435 197-393Q236-350 300-350Z"/><path id="guiBold19" d="M198 0L66 0L66-700L354-700Q420-700 471-674Q521-647 550-599Q578-551 578-485L578-485L578-471Q578-406 549-358Q519-309 469-283Q418-256 354-256L354-256L198-256L198 0ZM198-580L198-376L341-376Q388-376 417-402Q446-428 446-473L446-473L446-483Q446-528 417-554Q388-580 341-580L341-580L198-580Z"/><path id="guiBold54" d="M436 200L124 200L124 90L394 90Q422 90 422 60L422 60L422-65L404-65Q396-48 379-31Q362-14 333-3Q304 8 259 8L259 8Q201 8 158-19Q114-45 90-92Q66-139 66-200L66-200L66-496L192-496L192-210Q192-154 220-126Q247-98 298-98L298-98Q356-98 388-137Q420-175 420-244L420-244L420-496L546-496L546 88Q546 139 516 170Q486 200 436 200L436 200Z"/><path id="guiBold37" d="M196 0L70 0L70-700L196-700L196-435L214-435Q222-451 239-467Q256-483 285-494Q313-504 357-504L357-504Q415-504 459-478Q502-451 526-405Q550-358 550-296L550-296L550 0L424 0L424-286Q424-342 397-370Q369-398 318-398L318-398Q260-398 228-360Q196-321 196-252L196-252L196 0Z"/><path id="guiBold44" d="M306 14L306 14Q232 14 173-16Q114-46 80-103Q46-160 46-240L46-240L46-256Q46-336 80-393Q114-450 173-480Q232-510 306-510L306-510Q380-510 439-480Q498-450 532-393Q566-336 566-256L566-256L566-240Q566-160 532-103Q498-46 439-16Q380 14 306 14ZM306-98L306-98Q364-98 402-136Q440-173 440-243L440-243L440-253Q440-323 403-361Q365-398 306-398L306-398Q248-398 210-361Q172-323 172-253L172-253L172-243Q172-173 210-136Q248-98 306-98Z"/><path id="guiBold43" d="M196 0L70 0L70-496L194-496L194-431L212-431Q224-457 257-481Q290-504 357-504L357-504Q415-504 459-478Q502-451 526-405Q550-358 550-296L550-296L550 0L424 0L424-286Q424-342 397-370Q369-398 318-398L318-398Q260-398 228-360Q196-321 196-252L196-252L196 0Z"/><path id="gmono127" d="M500 0L410 0L410-160L80-160L80-301L369-730L467-730L170-282L170-242L410-242L410-420L500-420L500 0Z"/><path id="gmonoBold30" d="M538 0L103 0L103-730L228-730L228-116L538-116L538 0Z"/><path id="gmonoBold21" d="M304 10L304 10Q234 10 182-17Q129-43 101-92Q72-140 72-206L72-206L72-524Q72-591 101-639Q129-687 182-714Q234-740 304-740L304-740Q375-740 427-714Q478-687 507-639Q536-591 536-524L536-524L410-524Q410-576 383-603Q355-630 304-630L304-630Q253-630 225-603Q197-576 197-525L197-525L197-206Q197-155 225-127Q253-99 304-99L304-99Q355-99 383-127Q410-155 410-206L410-206L410-280L286-280L286-388L536-388L536-206Q536-140 507-92Q478-43 427-17Q375 10 304 10Z"/><path id="gmonoBold13" d="M292 0L75 0L75-730L292-730Q366-730 421-702Q475-674 505-623Q535-572 535-502L535-502L535-229Q535-160 505-109Q475-57 421-29Q366 0 292 0L292 0ZM200-615L200-115L292-115Q346-115 378-146Q410-176 410-229L410-229L410-502Q410-554 378-585Q346-615 292-615L292-615L200-615Z"/><path id="gmono91" d="M149 0L66 0L66-550L145-550L145-484L151-484Q156-513 174-533L174-533Q198-560 240-560L240-560Q286-560 311-526L311-526Q324-509 330-484L330-484L334-484Q339-513 358-533L358-533Q383-560 425-560L425-560Q477-560 506-521Q534-482 534-418L534-418L534 0L451 0L451-419Q451-453 437-472Q422-491 394-491L394-491Q367-491 352-473Q336-454 336-420L336-420L336 0L264 0L264-419Q264-454 249-473Q233-491 205-491Q177-491 163-473Q149-454 149-420L149-420L149 0Z"/><path id="gmono130" d="M282 0L185 0L446-648L170-648L170-540L80-540L80-730L535-730L535-642L282 0Z"/><path id="gmono102" d="M182 180L92 180L92-550L182-550L182-445L183-445Q189-493 224-524L224-524Q265-560 333-560L333-560Q416-560 466-506Q515-451 515-356L515-356L515-195Q515-132 493-86Q470-40 430-15Q389 10 333 10L333 10Q266 10 224-27L224-27Q189-58 183-105L183-105L180-105L182 20L182 180ZM303-68L303-68Q360-68 393-102Q425-136 425-200L425-200L425-350Q425-414 393-448Q360-482 303-482L303-482Q248-482 215-447Q182-412 182-350L182-350L182-200Q182-138 215-103Q248-68 303-68Z"/><path id="gmono95" d="M300 8L300 8Q234 8 186-17Q138-42 112-90Q85-137 85-202L85-202L85-348Q85-414 112-461Q138-508 186-533Q234-558 300-558L300-558Q366-558 414-533Q462-508 489-461Q515-414 515-349L515-349L515-202Q515-137 489-90Q462-42 414-17Q366 8 300 8ZM300-72L300-72Q359-72 392-105Q425-138 425-202L425-202L425-348Q425-412 392-445Q359-478 300-478L300-478Q242-478 209-445Q175-412 175-348L175-348L175-202Q175-138 209-105Q242-72 300-72ZM334-645L242-645L348-785L445-785L334-645Z"/><path id="gmono68" d="M304 10L304 10Q238 10 189-15Q139-40 112-88Q85-135 85-200L85-200L85-350Q85-416 112-463Q139-510 189-535Q238-560 304-560L304-560Q399-560 457-509Q515-458 518-370L518-370L428-370Q425-423 393-452Q360-480 304-480L304-480Q245-480 210-447Q175-413 175-351L175-351L175-200Q175-138 210-104Q245-70 304-70L304-70Q360-70 393-99Q425-128 428-180L428-180L518-180Q515-92 457-41Q399 10 304 10Z"/><path id="gmono11" d="M304 10L304 10Q238 10 190-15Q141-40 115-88Q88-135 88-200L88-200L88-530Q88-596 115-643Q141-690 190-715Q238-740 304-740L304-740Q370-740 418-715Q466-689 492-642Q518-595 518-530L518-530L428-530Q428-592 396-626Q363-659 304-659L304-659Q245-659 212-626Q178-593 178-531L178-531L178-200Q178-138 212-105Q245-71 304-71L304-71Q363-71 396-105Q428-138 428-200L428-200L518-200Q518-136 492-89Q466-41 418-16Q370 10 304 10Z"/><path id="gmono46" d="M304 10L304 10Q232 10 181-14Q129-38 101-83Q73-128 72-190L72-190L162-190Q162-135 200-103Q237-71 304-71L304-71Q367-71 403-102Q438-133 438-188L438-188Q438-232 415-265Q391-298 347-311L347-311L248-342Q173-365 133-419Q92-473 92-546L92-546Q92-605 119-649Q145-692 193-717Q241-741 306-741L306-741Q402-741 460-688Q518-634 519-545L519-545L429-545Q429-599 397-630Q364-660 305-660L305-660Q247-660 215-632Q182-604 182-554L182-554Q182-509 206-476Q230-443 275-429L275-429L375-397Q448-374 488-319Q528-264 528-190L528-190Q528-130 500-85Q472-40 422-15Q371 10 304 10Z"/><path id="gmono92" d="M182 0L92 0L92-550L182-550L182-445L183-445Q189-495 221-525L221-525Q260-560 329-560L329-560Q412-560 461-509Q510-458 510-370L510-370L510 0L420 0L420-360Q420-419 389-451Q357-482 303-482L303-482Q247-482 215-448Q182-414 182-350L182-350L182 0Z"/><path id="gmono87" d="M214 180L85 180L85 97L214 97Q276 97 311 64Q345 30 345-31L345-31L345-468L115-468L115-550L435-550L435-31Q435 66 375 123Q315 180 214 180L214 180ZM385-649L385-649Q352-649 333-666Q314-683 314-712L314-712Q314-742 333-760Q352-777 385-777L385-777Q418-777 437-760Q456-742 456-712L456-712Q456-683 437-666Q418-649 385-649Z"/><path id="gmono142" d="M300-410L300-410Q263-410 240-431Q217-451 217-485L217-485Q217-519 240-540Q263-560 300-560L300-560Q338-560 361-540Q383-519 383-485L383-485Q383-451 361-431Q338-410 300-410ZM300 10L300 10Q263 10 240-11Q217-31 217-65L217-65Q217-99 240-120Q263-140 300-140L300-140Q338-140 361-120Q383-99 383-65L383-65Q383-31 361-11Q338 10 300 10Z"/><path id="gmono22" d="M183 0L93 0L93-730L183-730L183-418L417-418L417-730L507-730L507 0L417 0L417-336L183-336L183 0Z"/><path id="gmono47" d="M345 0L255 0L255-649L55-649L55-731L545-731L545-649L345-649L345 0Z"/><path id="gmono31" d="M164 0L76 0L76-730L194-730L270-494Q281-462 290-431Q299-399 303-382L303-382Q308-399 316-431Q324-462 334-495L334-495L406-730L524-730L524 0L436 0L436-265Q436-309 439-365Q442-421 447-480Q452-538 458-592Q463-645 467-685L467-685L349-320L254-320L135-685Q140-646 145-595Q150-543 154-486Q158-428 161-371Q164-314 164-265L164-265L164 0Z"/><path id="gmono30" d="M535 0L115 0L115-730L205-730L205-82L535-82L535 0Z"/><path id="gmono157" d="M485 31L485 120Q343 85 264-18Q185-121 185-270L185-270L185-450Q185-548 222-628Q258-707 326-762Q393-817 485-840L485-840L485-755Q421-740 374-698Q327-655 301-592Q275-529 275-450L275-450L275-270Q275-193 301-130Q326-67 374-26Q421 16 485 31L485 31Z"/><path id="gmono158" d="M115 120L115 120L115 31Q180 16 227-26Q274-67 300-130Q325-193 325-270L325-270L325-450Q325-529 299-592Q273-655 226-698Q179-740 115-755L115-755L115-840Q208-817 275-762Q342-707 379-628Q415-548 415-450L415-450L415-270Q415-121 336-18Q257 85 115 120Z"/><path id="gmonoBold129" d="M300 10L300 10Q227 10 172-21Q116-51 86-107Q55-162 55-235L55-235Q55-287 73-344Q90-401 121-451L121-451L293-730L432-730L216-390L222-386Q242-417 276-433Q310-449 352-449L352-449Q411-449 454-421Q497-393 521-343Q545-293 545-226L545-226Q545-155 515-102Q484-49 430-20Q375 10 300 10ZM300-96L300-96Q355-96 389-132Q423-167 423-224L423-224Q423-283 389-319Q355-354 300-354L300-354Q245-354 211-319Q177-283 177-224L177-224Q177-167 211-132Q245-96 300-96Z"/><path id="gmonoBold132" d="M307 0L168 0L384-340L378-344Q358-313 324-297Q290-281 248-281L248-281Q190-281 147-309Q103-337 79-387Q55-437 55-504L55-504Q55-576 86-629Q116-681 171-711Q226-740 299-740L299-740Q374-740 429-710Q484-679 515-624Q545-569 545-495L545-495Q545-444 528-387Q511-329 479-279L479-279L307 0ZM300-376L300-376Q355-376 389-412Q423-447 423-506L423-506Q423-563 389-599Q355-634 300-634L300-634Q245-634 211-599Q177-563 177-506L177-506Q177-447 211-412Q245-376 300-376Z"/><mask id="oc0"><rect x="22" y="71.2" width="66" height="78.1" fill="url(#fadeV)"/></mask><mask id="oc1"><rect x="80" y="71.2" width="66" height="78.1" fill="url(#fadeV)"/></mask><mask id="oc2"><rect x="137.9" y="71.2" width="66" height="78.1" fill="url(#fadeV)"/></mask><mask id="oc3"><rect x="326" y="71.2" width="66" height="78.1" fill="url(#fadeV)"/></mask><mask id="oc4"><rect x="384" y="71.2" width="66" height="78.1" fill="url(#fadeV)"/></mask><mask id="oc5"><rect x="441.9" y="71.2" width="66" height="78.1" fill="url(#fadeV)"/></mask><mask id="oc6"><rect x="630" y="71.2" width="66" height="78.1" fill="url(#fadeV)"/></mask><mask id="oc7"><rect x="688" y="71.2" width="66" height="78.1" fill="url(#fadeV)"/></mask><mask id="oc8"><rect x="934" y="71.2" width="66" height="78.1" fill="url(#fadeV)"/></mask>
    <linearGradient id="cardG" x1="0" y1="0" x2="0" y2="1"><stop offset="0" stop-color="#150f2e"/><stop offset="1" stop-color="#0c0819"/></linearGradient>
    <linearGradient id="dg" x1="0" y1="0" x2="0" y2="1"><stop offset="0" stop-color="#ffffff"/><stop offset="0.55" stop-color="#ffe3f4"/><stop offset="1" stop-color="#ffc53d"/></linearGradient>
    <linearGradient id="fadeV" x1="0" y1="0" x2="0" y2="1"><stop offset="0" stop-color="#fff" stop-opacity="0"/><stop offset="0.2" stop-color="#fff" stop-opacity="1"/><stop offset="0.82" stop-color="#fff" stop-opacity="1"/><stop offset="1" stop-color="#fff" stop-opacity="0"/></linearGradient>
    <linearGradient id="favG" x1="0" y1="0" x2="0" y2="1"><stop offset="0" stop-color="#ffc53d"/><stop offset="1" stop-color="#ff2e88"/></linearGradient>
    <linearGradient id="shine0" x1="0" y1="0" x2="1" y2="1"><stop offset="0" stop-color="#8b5cf6" stop-opacity="0.16"/><stop offset="0.5" stop-color="#8b5cf6" stop-opacity="0.02"/><stop offset="1" stop-color="#8b5cf6" stop-opacity="0"/></linearGradient><linearGradient id="shine1" x1="0" y1="0" x2="1" y2="1"><stop offset="0" stop-color="#ff2e88" stop-opacity="0.16"/><stop offset="0.5" stop-color="#ff2e88" stop-opacity="0.02"/><stop offset="1" stop-color="#ff2e88" stop-opacity="0"/></linearGradient><linearGradient id="shine2" x1="0" y1="0" x2="1" y2="1"><stop offset="0" stop-color="#ff8a3d" stop-opacity="0.16"/><stop offset="0.5" stop-color="#ff8a3d" stop-opacity="0.02"/><stop offset="1" stop-color="#ff8a3d" stop-opacity="0"/></linearGradient><linearGradient id="shine3" x1="0" y1="0" x2="1" y2="1"><stop offset="0" stop-color="#ffc53d" stop-opacity="0.16"/><stop offset="0.5" stop-color="#ffc53d" stop-opacity="0.02"/><stop offset="1" stop-color="#ffc53d" stop-opacity="0"/></linearGradient></defs>
<style>
    .card{animation:up .8s cubic-bezier(.2,.8,.2,1) backwards}
    @keyframes up{from{opacity:0;transform:translateY(14px)}}
    .od{transform:translateY(var(--f));animation:roll 2.2s cubic-bezier(.15,.75,.2,1) backwards}
    @keyframes roll{from{transform:translateY(0)}}
    .seg{transform-box:fill-box;transform-origin:left;animation:grow 1s cubic-bezier(.2,.8,.2,1) backwards}
    @keyframes grow{from{transform:scaleX(0)}}
    .col{transform-box:fill-box;transform-origin:bottom;animation:growY 1s cubic-bezier(.25,1.3,.45,1) backwards}
    @keyframes growY{from{transform:scaleY(0)}}
    .lg{animation:fade .6s backwards}@keyframes fade{from{opacity:0}}
    .ring{transform-box:fill-box;transform-origin:center;animation:ring 2.4s ease-out infinite}
    @keyframes ring{from{transform:scale(1);opacity:.9}to{transform:scale(3.2);opacity:0}}
@media (prefers-reduced-motion: reduce){*{animation:none!important;transition:none!important}}</style>
<g class="card" style="animation-delay:0.1s">
      <rect x="0" y="0" width="288" height="184" rx="22" fill="url(#cardG)" stroke="#3b2d66" stroke-width="1.2"/>
      <rect x="0" y="0" width="288" height="184" rx="22" fill="url(#shine0)" opacity=".9"/>
      <circle cx="30" cy="36" r="5" fill="#8b5cf6"/>
      <circle cx="30" cy="36" r="5" fill="none" stroke="#8b5cf6" class="ring" style="animation-delay:0s"/>
      <g transform="translate(44 41) scale(0.01300)" fill="#8b5cf6"><use href="#gmonoBold11" x="0"/><use href="#gmonoBold34" x="708"/><use href="#gmonoBold32" x="1415"/><use href="#gmonoBold47" x="2123"/><use href="#gmonoBold45" x="2831"/><use href="#gmonoBold23" x="3538"/><use href="#gmonoBold10" x="4246"/><use href="#gmonoBold48" x="4954"/><use href="#gmonoBold23" x="5662"/><use href="#gmonoBold12" x="6369"/><use href="#gmonoBold40" x="7077"/><use href="#gmonoBold15" x="7785"/><use href="#gmonoBold46" x="8492"/></g>
      <g mask="url(#oc0)"><g class="od" style="--f:-988.9px;animation-delay:0.5s"><g transform="translate(26 132) scale(0.06200)" fill="url(#dg)"><use href="#gdisplay134" x="0" y="0"/><use href="#gdisplay135" x="199" y="1450"/><use href="#gdisplay136" x="42" y="2900"/><use href="#gdisplay137" x="42" y="4350"/><use href="#gdisplay138" x="27" y="5800"/><use href="#gdisplay139" x="59" y="7250"/><use href="#gdisplay140" x="34" y="8700"/><use href="#gdisplay141" x="83" y="10150"/><use href="#gdisplay142" x="15" y="11600"/><use href="#gdisplay143" x="34" y="13050"/><use href="#gdisplay134" x="0" y="14500"/><use href="#gdisplay135" x="199" y="15950"/></g></g></g><g mask="url(#oc1)"><g class="od" style="--f:-1258.6px;animation-delay:0.58s"><g transform="translate(84 132) scale(0.06200)" fill="url(#dg)"><use href="#gdisplay134" x="0" y="0"/><use href="#gdisplay135" x="199" y="1450"/><use href="#gdisplay136" x="42" y="2900"/><use href="#gdisplay137" x="42" y="4350"/><use href="#gdisplay138" x="27" y="5800"/><use href="#gdisplay139" x="59" y="7250"/><use href="#gdisplay140" x="34" y="8700"/><use href="#gdisplay141" x="83" y="10150"/><use href="#gdisplay142" x="15" y="11600"/><use href="#gdisplay143" x="34" y="13050"/><use href="#gdisplay134" x="0" y="14500"/><use href="#gdisplay135" x="199" y="15950"/><use href="#gdisplay136" x="42" y="17400"/><use href="#gdisplay137" x="42" y="18850"/><use href="#gdisplay138" x="27" y="20300"/></g></g></g><g mask="url(#oc2)"><g class="od" style="--f:-1168.7px;animation-delay:0.66s"><g transform="translate(141.9 132) scale(0.06200)" fill="url(#dg)"><use href="#gdisplay134" x="0" y="0"/><use href="#gdisplay135" x="199" y="1450"/><use href="#gdisplay136" x="42" y="2900"/><use href="#gdisplay137" x="42" y="4350"/><use href="#gdisplay138" x="27" y="5800"/><use href="#gdisplay139" x="59" y="7250"/><use href="#gdisplay140" x="34" y="8700"/><use href="#gdisplay141" x="83" y="10150"/><use href="#gdisplay142" x="15" y="11600"/><use href="#gdisplay143" x="34" y="13050"/><use href="#gdisplay134" x="0" y="14500"/><use href="#gdisplay135" x="199" y="15950"/><use href="#gdisplay136" x="42" y="17400"/><use href="#gdisplay137" x="42" y="18850"/></g></g></g>
      
      <g transform="translate(26 164) scale(0.01400)" fill="#8b82b3"><use href="#gmono70" x="0"/><use href="#gmono72" x="600"/><use href="#gmono106" x="1200"/><use href="#gmono70" x="1800"/><use href="#gmono72" x="2400"/><use href="#gmono59" x="3600"/><use href="#gmono78" x="4200"/><use href="#gmono94" x="4800"/><use href="#gmono125" x="6000"/><use href="#gmono123" x="6600"/><use href="#gmono125" x="7200"/><use href="#gmono128" x="7800"/></g>
    </g><g class="card" style="animation-delay:0.2s">
      <rect x="304" y="0" width="288" height="184" rx="22" fill="url(#cardG)" stroke="#3b2d66" stroke-width="1.2"/>
      <rect x="304" y="0" width="288" height="184" rx="22" fill="url(#shine1)" opacity=".9"/>
      <circle cx="334" cy="36" r="5" fill="#ff2e88"/>
      <circle cx="334" cy="36" r="5" fill="none" stroke="#ff2e88" class="ring" style="animation-delay:0.5s"/>
      <g transform="translate(348 41) scale(0.01300)" fill="#ff2e88"><use href="#gmonoBold11" x="0"/><use href="#gmonoBold34" x="708"/><use href="#gmonoBold31" x="1415"/><use href="#gmonoBold31" x="2123"/><use href="#gmonoBold23" x="2831"/><use href="#gmonoBold47" x="3538"/><use href="#gmonoBold46" x="4246"/><use href="#gmonoBold149" x="5662"/><use href="#gmonoBold124" x="7077"/><use href="#gmonoBold125" x="7785"/><use href="#gmonoBold31" x="9200"/><use href="#gmonoBold15" x="9908"/><use href="#gmonoBold46" x="10615"/><use href="#gmonoBold15" x="11323"/><use href="#gmonoBold46" x="12031"/></g>
      <g mask="url(#oc3)"><g class="od" style="--f:-988.9px;animation-delay:0.68s"><g transform="translate(330 132) scale(0.06200)" fill="url(#dg)"><use href="#gdisplay134" x="0" y="0"/><use href="#gdisplay135" x="199" y="1450"/><use href="#gdisplay136" x="42" y="2900"/><use href="#gdisplay137" x="42" y="4350"/><use href="#gdisplay138" x="27" y="5800"/><use href="#gdisplay139" x="59" y="7250"/><use href="#gdisplay140" x="34" y="8700"/><use href="#gdisplay141" x="83" y="10150"/><use href="#gdisplay142" x="15" y="11600"/><use href="#gdisplay143" x="34" y="13050"/><use href="#gdisplay134" x="0" y="14500"/><use href="#gdisplay135" x="199" y="15950"/></g></g></g><g mask="url(#oc4)"><g class="od" style="--f:-988.9px;animation-delay:0.76s"><g transform="translate(388 132) scale(0.06200)" fill="url(#dg)"><use href="#gdisplay134" x="0" y="0"/><use href="#gdisplay135" x="199" y="1450"/><use href="#gdisplay136" x="42" y="2900"/><use href="#gdisplay137" x="42" y="4350"/><use href="#gdisplay138" x="27" y="5800"/><use href="#gdisplay139" x="59" y="7250"/><use href="#gdisplay140" x="34" y="8700"/><use href="#gdisplay141" x="83" y="10150"/><use href="#gdisplay142" x="15" y="11600"/><use href="#gdisplay143" x="34" y="13050"/><use href="#gdisplay134" x="0" y="14500"/><use href="#gdisplay135" x="199" y="15950"/></g></g></g><g mask="url(#oc5)"><g class="od" style="--f:-1258.6px;animation-delay:0.84s"><g transform="translate(445.9 132) scale(0.06200)" fill="url(#dg)"><use href="#gdisplay134" x="0" y="0"/><use href="#gdisplay135" x="199" y="1450"/><use href="#gdisplay136" x="42" y="2900"/><use href="#gdisplay137" x="42" y="4350"/><use href="#gdisplay138" x="27" y="5800"/><use href="#gdisplay139" x="59" y="7250"/><use href="#gdisplay140" x="34" y="8700"/><use href="#gdisplay141" x="83" y="10150"/><use href="#gdisplay142" x="15" y="11600"/><use href="#gdisplay143" x="34" y="13050"/><use href="#gdisplay134" x="0" y="14500"/><use href="#gdisplay135" x="199" y="15950"/><use href="#gdisplay136" x="42" y="17400"/><use href="#gdisplay137" x="42" y="18850"/><use href="#gdisplay138" x="27" y="20300"/></g></g></g>
      
      <g transform="translate(330 164) scale(0.01400)" fill="#8b82b3"><use href="#gmono125" x="0"/><use href="#gmono42" x="1200"/><use href="#gmono45" x="1800"/><use href="#gmono106" x="2400"/><use href="#gmono149" x="3600"/><use href="#gmono124" x="4800"/><use href="#gmono80" x="6000"/><use href="#gmono106" x="6600"/><use href="#gmono106" x="7200"/><use href="#gmono109" x="7800"/><use href="#gmono72" x="8400"/></g>
    </g><g class="card" style="animation-delay:0.3s">
      <rect x="608" y="0" width="288" height="184" rx="22" fill="url(#cardG)" stroke="#3b2d66" stroke-width="1.2"/>
      <rect x="608" y="0" width="288" height="184" rx="22" fill="url(#shine2)" opacity=".9"/>
      <circle cx="638" cy="36" r="5" fill="#ff8a3d"/>
      <circle cx="638" cy="36" r="5" fill="none" stroke="#ff8a3d" class="ring" style="animation-delay:1s"/>
      <g transform="translate(652 41) scale(0.01300)" fill="#ff8a3d"><use href="#gmonoBold45" x="0"/><use href="#gmonoBold15" x="708"/><use href="#gmonoBold42" x="1415"/><use href="#gmonoBold34" x="2123"/><use href="#gmonoBold46" x="2831"/><use href="#gmonoBold23" x="3538"/><use href="#gmonoBold47" x="4246"/><use href="#gmonoBold35" x="4954"/><use href="#gmonoBold45" x="5662"/><use href="#gmonoBold23" x="6369"/><use href="#gmonoBold34" x="7077"/><use href="#gmonoBold46" x="7785"/></g>
      <g mask="url(#oc6)"><g class="od" style="--f:-988.9px;animation-delay:0.86s"><g transform="translate(634 132) scale(0.06200)" fill="url(#dg)"><use href="#gdisplay134" x="0" y="0"/><use href="#gdisplay135" x="199" y="1450"/><use href="#gdisplay136" x="42" y="2900"/><use href="#gdisplay137" x="42" y="4350"/><use href="#gdisplay138" x="27" y="5800"/><use href="#gdisplay139" x="59" y="7250"/><use href="#gdisplay140" x="34" y="8700"/><use href="#gdisplay141" x="83" y="10150"/><use href="#gdisplay142" x="15" y="11600"/><use href="#gdisplay143" x="34" y="13050"/><use href="#gdisplay134" x="0" y="14500"/><use href="#gdisplay135" x="199" y="15950"/></g></g></g><g mask="url(#oc7)"><g class="od" style="--f:-1528.3px;animation-delay:0.94s"><g transform="translate(692 132) scale(0.06200)" fill="url(#dg)"><use href="#gdisplay134" x="0" y="0"/><use href="#gdisplay135" x="199" y="1450"/><use href="#gdisplay136" x="42" y="2900"/><use href="#gdisplay137" x="42" y="4350"/><use href="#gdisplay138" x="27" y="5800"/><use href="#gdisplay139" x="59" y="7250"/><use href="#gdisplay140" x="34" y="8700"/><use href="#gdisplay141" x="83" y="10150"/><use href="#gdisplay142" x="15" y="11600"/><use href="#gdisplay143" x="34" y="13050"/><use href="#gdisplay134" x="0" y="14500"/><use href="#gdisplay135" x="199" y="15950"/><use href="#gdisplay136" x="42" y="17400"/><use href="#gdisplay137" x="42" y="18850"/><use href="#gdisplay138" x="27" y="20300"/><use href="#gdisplay139" x="59" y="21750"/><use href="#gdisplay140" x="34" y="23200"/><use href="#gdisplay141" x="83" y="24650"/></g></g></g>
      
      <g transform="translate(634 164) scale(0.01400)" fill="#8b82b3"><use href="#gmono131" x="0"/><use href="#gmono72" x="1200"/><use href="#gmono106" x="1800"/><use href="#gmono108" x="2400"/><use href="#gmono105" x="3000"/><use href="#gmono72" x="3600"/><use href="#gmono90" x="4200"/><use href="#gmono59" x="4800"/><use href="#gmono106" x="5400"/><use href="#gmono149" x="6600"/><use href="#gmono123" x="7800"/><use href="#gmono77" x="9000"/><use href="#gmono94" x="9600"/><use href="#gmono105" x="10200"/><use href="#gmono89" x="10800"/><use href="#gmono106" x="11400"/></g>
    </g><g class="card" style="animation-delay:0.5s">
      <rect x="912" y="0" width="288" height="184" rx="22" fill="url(#cardG)" stroke="#3b2d66" stroke-width="1.2"/>
      <rect x="912" y="0" width="288" height="184" rx="22" fill="url(#shine3)" opacity=".9"/>
      <circle cx="942" cy="36" r="5" fill="#ffc53d"/>
      <circle cx="942" cy="36" r="5" fill="none" stroke="#ffc53d" class="ring" style="animation-delay:1.5s"/>
      <g transform="translate(956 41) scale(0.01300)" fill="#ffc53d"><use href="#gmonoBold31" x="0"/><use href="#gmonoBold1" x="708"/><use href="#gmonoBold23" x="1415"/><use href="#gmonoBold34" x="2123"/><use href="#gmonoBold45" x="2831"/><use href="#gmonoBold46" x="4246"/><use href="#gmonoBold15" x="4954"/><use href="#gmonoBold44" x="5662"/><use href="#gmonoBold48" x="6369"/><use href="#gmonoBold17" x="7077"/><use href="#gmonoBold32" x="7785"/><use href="#gmonoBold11" x="8492"/><use href="#gmonoBold23" x="9200"/><use href="#gmonoBold1" x="9908"/></g>
      <g mask="url(#oc8)"><g class="od" style="--f:-1168.7px;animation-delay:1.04s"><g transform="translate(938 132) scale(0.06200)" fill="url(#dg)"><use href="#gdisplay134" x="0" y="0"/><use href="#gdisplay135" x="199" y="1450"/><use href="#gdisplay136" x="42" y="2900"/><use href="#gdisplay137" x="42" y="4350"/><use href="#gdisplay138" x="27" y="5800"/><use href="#gdisplay139" x="59" y="7250"/><use href="#gdisplay140" x="34" y="8700"/><use href="#gdisplay141" x="83" y="10150"/><use href="#gdisplay142" x="15" y="11600"/><use href="#gdisplay143" x="34" y="13050"/><use href="#gdisplay134" x="0" y="14500"/><use href="#gdisplay135" x="199" y="15950"/><use href="#gdisplay136" x="42" y="17400"/><use href="#gdisplay137" x="42" y="18850"/></g></g></g>
      <g transform="translate(1006 132) scale(0.02200)" fill="#c9c2e8"><use href="#guiBold33" x="0"/><use href="#guiBold38" x="638"/><use href="#guiBold30" x="904"/><use href="#guiBold48" x="1478"/></g>
      <g transform="translate(938 164) scale(0.01400)" fill="#8b82b3"><use href="#gmono124" x="0"/><use href="#gmono106" x="1200"/><use href="#gmono72" x="1800"/><use href="#gmono108" x="2400"/><use href="#gmono59" x="3600"/><use href="#gmono126" x="4800"/><use href="#gmono106" x="6000"/><use href="#gmono72" x="6600"/><use href="#gmono108" x="7200"/><use href="#gmono125" x="8400"/><use href="#gmono123" x="9000"/><use href="#gmono125" x="9600"/><use href="#gmono128" x="10200"/></g>
    </g><g class="card" style="animation-delay:.6s">
    <rect x="0" y="204" width="720" height="266" rx="22" fill="url(#cardG)" stroke="#3b2d66" stroke-width="1.2"/>
    <g transform="translate(28 244) scale(0.01300)" fill="#22d3ee"><use href="#gmonoBold30" x="0"/><use href="#gmonoBold23" x="708"/><use href="#gmonoBold32" x="1415"/><use href="#gmonoBold21" x="2123"/><use href="#gmonoBold48" x="2831"/><use href="#gmonoBold1" x="3538"/><use href="#gmonoBold21" x="4246"/><use href="#gmonoBold15" x="4954"/><use href="#gmonoBold32" x="5662"/><use href="#gmonoBold46" x="6369"/><use href="#gmonoBold31" x="7785"/><use href="#gmonoBold1" x="8492"/><use href="#gmonoBold23" x="9200"/><use href="#gmonoBold46" x="9908"/><use href="#gmonoBold48" x="11323"/><use href="#gmonoBold46" x="12031"/><use href="#gmonoBold1" x="12738"/><use href="#gmonoBold13" x="13446"/><use href="#gmonoBold1" x="14154"/><use href="#gmonoBold46" x="14862"/></g>
    <g transform="translate(551.6 244) scale(0.01300)" fill="#8b82b3"><use href="#gmono72" x="0"/><use href="#gmono91" x="600"/><use href="#gmono124" x="1800"/><use href="#gmono130" x="2400"/><use href="#gmono105" x="3600"/><use href="#gmono72" x="4200"/><use href="#gmono102" x="4800"/><use href="#gmono94" x="5400"/><use href="#gmono106" x="6000"/><use href="#gmono80" x="6600"/><use href="#gmono108" x="7200"/><use href="#gmono95" x="7800"/><use href="#gmono105" x="8400"/><use href="#gmono80" x="9000"/><use href="#gmono94" x="9600"/><use href="#gmono106" x="10200"/></g>
    <rect x="28" y="274" width="664" height="26" rx="5" fill="#0c0819"/>
    <rect x="28" y="274" width="170.7" height="26" rx="4" fill="#8b5cf6" class="seg" style="animation-delay:0.9s"/><rect x="201.7" y="274" width="151.8" height="26" rx="4" fill="#ff2e88" class="seg" style="animation-delay:1.02s"/><rect x="356.5" y="274" width="131.4" height="26" rx="4" fill="#ff8a3d" class="seg" style="animation-delay:1.14s"/><rect x="491" y="274" width="122.3" height="26" rx="4" fill="#ffc53d" class="seg" style="animation-delay:1.26s"/><rect x="616.3" y="274" width="72.7" height="26" rx="4" fill="#22d3ee" class="seg" style="animation-delay:1.38s"/>
    <g class="lg" style="animation-delay:1.1s">
      <rect x="28" y="332" width="14" height="14" rx="4" fill="#8b5cf6"/>
      <g transform="translate(52 344) scale(0.01700)" fill="#f5f3ff"><use href="#guiBold13" x="0"/><use href="#guiBold30" x="576"/><use href="#guiBold51" x="1126"/><use href="#guiBold30" x="1662"/></g>
      <g transform="translate(100.1 344) scale(0.01400)" fill="#8b82b3"><use href="#gmono125" x="0"/><use href="#gmono129" x="600"/><use href="#gmono141" x="1200"/><use href="#gmono125" x="1800"/><use href="#gmono262" x="2400"/></g>
    </g><g class="lg" style="animation-delay:1.18s">
      <rect x="252.7" y="332" width="14" height="14" rx="4" fill="#ff2e88"/>
      <g transform="translate(276.7 344) scale(0.01700)" fill="#f5f3ff"><use href="#guiBold6" x="0"/><use href="#guiBold22" x="644"/><use href="#guiBold22" x="1250"/></g>
      <g transform="translate(318.2 344) scale(0.01400)" fill="#8b82b3"><use href="#gmono125" x="0"/><use href="#gmono126" x="600"/><use href="#gmono141" x="1200"/><use href="#gmono126" x="1800"/><use href="#gmono262" x="2400"/></g>
    </g><g class="lg" style="animation-delay:1.26s">
      <rect x="477.3" y="332" width="14" height="14" rx="4" fill="#ff8a3d"/>
      <g transform="translate(501.3 344) scale(0.01700)" fill="#f5f3ff"><use href="#guiBold13" x="0"/><use href="#guiBold30" x="576"/><use href="#guiBold51" x="1126"/><use href="#guiBold30" x="1662"/><use href="#guiBold22" x="2240"/><use href="#guiBold32" x="2846"/><use href="#guiBold47" x="3432"/><use href="#guiBold38" x="3828"/><use href="#guiBold45" x="4094"/><use href="#guiBold49" x="4716"/></g>
      <g transform="translate(599.3 344) scale(0.01400)" fill="#8b82b3"><use href="#gmono125" x="0"/><use href="#gmono123" x="600"/><use href="#gmono141" x="1200"/><use href="#gmono125" x="1800"/><use href="#gmono262" x="2400"/></g>
    </g><g class="lg" style="animation-delay:1.34s">
      <rect x="28" y="368" width="14" height="14" rx="4" fill="#ffc53d"/>
      <g transform="translate(52 380) scale(0.01700)" fill="#f5f3ff"><use href="#guiBold11" x="0"/><use href="#guiBold23" x="656"/><use href="#guiBold16" x="1244"/><use href="#guiBold15" x="2126"/></g>
      <g transform="translate(107.4 380) scale(0.01400)" fill="#8b82b3"><use href="#gmono124" x="0"/><use href="#gmono131" x="600"/><use href="#gmono141" x="1200"/><use href="#gmono132" x="1800"/><use href="#gmono262" x="2400"/></g>
    </g><g class="lg" style="animation-delay:1.42s">
      <rect x="252.7" y="368" width="14" height="14" rx="4" fill="#22d3ee"/>
      <g transform="translate(276.7 380) scale(0.01700)" fill="#f5f3ff"><use href="#guiBold19" x="0"/><use href="#guiBold54" x="604"/><use href="#guiBold49" x="1220"/><use href="#guiBold37" x="1676"/><use href="#guiBold44" x="2292"/><use href="#guiBold43" x="2904"/></g>
      <g transform="translate(346.5 380) scale(0.01400)" fill="#8b82b3"><use href="#gmono124" x="0"/><use href="#gmono124" x="600"/><use href="#gmono141" x="1200"/><use href="#gmono127" x="1800"/><use href="#gmono262" x="2400"/></g>
    </g>
    <rect x="28" y="412" width="664" height="1" fill="#2a1f4a"/>
    <g transform="translate(28 444) scale(0.01400)" fill="#c9c2e8"><use href="#gmono91" x="0"/><use href="#gmono59" x="600"/><use href="#gmono80" x="1200"/><use href="#gmono106" x="1800"/><use href="#gmono68" x="3000"/><use href="#gmono95" x="3600"/><use href="#gmono70" x="4200"/><use href="#gmono80" x="4800"/><use href="#gmono78" x="5400"/><use href="#gmono94" x="6000"/><use href="#gmono72" x="7200"/><use href="#gmono91" x="7800"/><use href="#gmono11" x="9000"/><use href="#gmono46" x="9600"/><use href="#gmono46" x="10200"/><use href="#gmono149" x="11400"/><use href="#gmono102" x="12600"/><use href="#gmono105" x="13200"/><use href="#gmono72" x="13800"/><use href="#gmono106" x="14400"/><use href="#gmono72" x="15000"/><use href="#gmono92" x="15600"/><use href="#gmono108" x="16200"/><use href="#gmono72" x="16800"/><use href="#gmono72" x="18000"/><use href="#gmono91" x="18600"/><use href="#gmono91" x="19800"/><use href="#gmono59" x="20400"/><use href="#gmono80" x="21000"/><use href="#gmono106" x="21600"/><use href="#gmono102" x="22800"/><use href="#gmono105" x="23400"/><use href="#gmono94" x="24000"/><use href="#gmono87" x="24600"/><use href="#gmono72" x="25200"/><use href="#gmono108" x="25800"/><use href="#gmono94" x="26400"/><use href="#gmono106" x="27000"/><use href="#gmono142" x="27600"/><use href="#gmono22" x="28800"/><use href="#gmono47" x="29400"/><use href="#gmono31" x="30000"/><use href="#gmono30" x="30600"/><use href="#gmono157" x="31800"/><use href="#gmono131" x="32400"/><use href="#gmono158" x="33000"/></g>
  </g><g class="card" style="animation-delay:.75s">
    <rect x="736" y="204" width="464" height="266" rx="22" fill="url(#cardG)" stroke="#3b2d66" stroke-width="1.2"/>
    <g transform="translate(764 244) scale(0.01300)" fill="#ff2e88"><use href="#gmonoBold45" x="0"/><use href="#gmonoBold23" x="708"/><use href="#gmonoBold47" x="1415"/><use href="#gmonoBold31" x="2123"/><use href="#gmonoBold34" x="2831"/><use href="#gmonoBold13" x="4246"/><use href="#gmonoBold1" x="4954"/><use href="#gmonoBold46" x="6369"/><use href="#gmonoBold15" x="7077"/><use href="#gmonoBold31" x="7785"/><use href="#gmonoBold1" x="8492"/><use href="#gmonoBold32" x="9200"/><use href="#gmonoBold1" x="9908"/></g>
    <g>
      <rect x="764" y="278" width="40" height="142" rx="10" fill="#0c0819"/>
      <rect x="764" y="407.7" width="40" height="12.3" rx="10" fill="#8b5cf6" opacity="0.55" class="col" style="animation-delay:1s"/>
      <g transform="translate(779.8 446) scale(0.01400)" fill="#8b82b3"><use href="#gmonoBold13" x="0"/></g>
      
    </g><g>
      <rect x="825.3" y="278" width="40" height="142" rx="10" fill="#0c0819"/>
      <rect x="825.3" y="387.1" width="40" height="32.9" rx="10" fill="#a356f7" opacity="0.55" class="col" style="animation-delay:1.07s"/>
      <g transform="translate(841.1 446) scale(0.01400)" fill="#8b82b3"><use href="#gmonoBold46" x="0"/></g>
      
    </g><g>
      <rect x="886.7" y="278" width="40" height="142" rx="10" fill="#0c0819"/>
      <rect x="886.7" y="278" width="40" height="142" rx="10" fill="url(#favG)" opacity="1" class="col" style="animation-delay:1.14s"/>
      <g transform="translate(902.5 446) scale(0.01400)" fill="#ffc53d"><use href="#gmonoBold47" x="0"/></g>
      <g transform="translate(898.9 268) scale(0.01300)" fill="#ffc53d"><use href="#gmonoBold129" x="0"/><use href="#gmonoBold132" x="600"/></g>
    </g><g>
      <rect x="948" y="278" width="40" height="142" rx="10" fill="#0c0819"/>
      <rect x="948" y="401.5" width="40" height="18.5" rx="10" fill="#ff3e7b" opacity="0.55" class="col" style="animation-delay:1.21s"/>
      <g transform="translate(963.8 446) scale(0.01400)" fill="#8b82b3"><use href="#gmonoBold44" x="0"/></g>
      
    </g><g>
      <rect x="1009.3" y="278" width="40" height="142" rx="10" fill="#0c0819"/>
      <rect x="1009.3" y="341.8" width="40" height="78.2" rx="10" fill="#ff615d" opacity="0.55" class="col" style="animation-delay:1.28s"/>
      <g transform="translate(1025.1 446) scale(0.01400)" fill="#8b82b3"><use href="#gmonoBold44" x="0"/></g>
      
    </g><g>
      <rect x="1070.7" y="278" width="40" height="142" rx="10" fill="#0c0819"/>
      <rect x="1070.7" y="411.8" width="40" height="8.2" rx="10" fill="#ff943d" opacity="0.55" class="col" style="animation-delay:1.35s"/>
      <g transform="translate(1086.5 446) scale(0.01400)" fill="#8b82b3"><use href="#gmonoBold46" x="0"/></g>
      
    </g><g>
      <rect x="1132" y="278" width="40" height="142" rx="10" fill="#0c0819"/>
      <rect x="1132" y="414" width="40" height="6" rx="10" fill="#ffc53d" opacity="0.55" class="col" style="animation-delay:1.42s"/>
      <g transform="translate(1147.8 446) scale(0.01400)" fill="#8b82b3"><use href="#gmonoBold46" x="0"/></g>
      
    </g>
  </g>
</svg>
